<svg width="502" height="502" viewBox="0 0 502 502" fill="none" xmlns="http://www.w3.org/2000/svg">
<circle cx="251" cy="250.769" r="250.5" fill="white"/>
<path d="M409.282 56.3584C465.678 102.356 501.691 172.395 501.691 250.846C501.691 389.384 389.384 501.691 250.846 501.691C220.546 501.691 191.5 496.319 164.61 486.475C247.217 332.134 308.006 225.026 409.282 56.3584ZM250.846 0C310.833 3.92794e-05 365.901 21.0575 409.064 56.1826L361.028 82.5908L297.854 194.518L337.845 97.8213C308.255 117.368 295.262 131.794 276.734 162.004C210.621 279.137 182.24 343.478 133.119 363.242L88.582 442.146C87.3117 441.068 86.0521 439.977 84.8037 438.874L112.308 371.23C82.2086 382.475 64.942 386.348 37.541 382.912C13.7421 344.555 3.17389e-05 299.305 0 250.846C0 112.308 112.308 0 250.846 0Z" fill="url(#paint0_linear_666_3)"/>
<path fill-rule="evenodd" clip-rule="evenodd" d="M424.936 344.479C430.483 357.982 424.822 373.517 411.923 380.186L281.174 447.79L261.211 408.541L378.902 347.689L343.497 261.505L383.915 244.625L424.936 344.479Z" fill="white"/>
<path fill-rule="evenodd" clip-rule="evenodd" d="M64.3169 196.565C58.7696 183.337 64.4312 168.119 77.3301 161.586L208.079 95.3624L228.042 133.81L110.351 193.42L145.756 277.845L105.338 294.38L64.3169 196.565Z" fill="white"/>
<path d="M262.456 267.63L295.631 236.333L301.845 304.745L285.26 344.134L262.456 267.63Z" fill="white"/>
<defs>
<linearGradient id="paint0_linear_666_3" x1="250.846" y1="0" x2="250.846" y2="501.691" gradientUnits="userSpaceOnUse">
<stop stop-color="#2A8EFF"/>
<stop offset="1" stop-color="#A74EFF"/>
</linearGradient>
</defs>
</svg>
